<svg width="3" height="11" viewBox="0 0 3 11" fill="none" xmlns="http://www.w3.org/2000/svg" id="chat-menu">
<path d="M0.40625 8.40625C0.677083 8.13542 0.989583 8 1.34375 8C1.69792 8 2.01042 8.13542 2.28125 8.40625C2.55208 8.67708 2.6875 8.98958 2.6875 9.34375C2.6875 9.69792 2.55208 10.0104 2.28125 10.2812C2.01042 10.5521 1.69792 10.6875 1.34375 10.6875C0.989583 10.6875 0.677083 10.5521 0.40625 10.2812C0.135417 10.0104 0 9.69792 0 9.34375C0 8.98958 0.135417 8.67708 0.40625 8.40625ZM0.40625 4.40625C0.677083 4.13542 0.989583 4 1.34375 4C1.69792 4 2.01042 4.13542 2.28125 4.40625C2.55208 4.67708 2.6875 4.98958 2.6875 5.34375C2.6875 5.69792 2.55208 6.01042 2.28125 6.28125C2.01042 6.55208 1.69792 6.6875 1.34375 6.6875C0.989583 6.6875 0.677083 6.55208 0.40625 6.28125C0.135417 6.01042 0 5.69792 0 5.34375C0 4.98958 0.135417 4.67708 0.40625 4.40625ZM2.28125 2.28125C2.01042 2.55208 1.69792 2.6875 1.34375 2.6875C0.989583 2.6875 0.677083 2.55208 0.40625 2.28125C0.135417 2.01042 0 1.69792 0 1.34375C0 0.989583 0.135417 0.677083 0.40625 0.40625C0.677083 0.135417 0.989583 0 1.34375 0C1.69792 0 2.01042 0.135417 2.28125 0.40625C2.55208 0.677083 2.6875 0.989583 2.6875 1.34375C2.6875 1.69792 2.55208 2.01042 2.28125 2.28125Z" fill="currentColor"/>
</svg>
