<svg width="14" height="13" viewBox="0 0 14 13" fill="none" xmlns="http://www.w3.org/2000/svg" id="like">
<path d="M6.71875 10.375C7.71875 9.47917 8.45833 8.80208 8.9375 8.34375C9.41667 7.88542 9.9375 7.34375 10.5 6.71875C11.0625 6.09375 11.4479 5.54167 11.6562 5.0625C11.8854 4.58333 12 4.11458 12 3.65625C12 2.98958 11.7708 2.4375 11.3125 2C10.875 1.5625 10.3229 1.34375 9.65625 1.34375C9.13542 1.34375 8.64583 1.48958 8.1875 1.78125C7.75 2.07292 7.44792 2.44792 7.28125 2.90625H6.03125C5.86458 2.44792 5.55208 2.07292 5.09375 1.78125C4.65625 1.48958 4.17708 1.34375 3.65625 1.34375C2.98958 1.34375 2.42708 1.5625 1.96875 2C1.53125 2.4375 1.3125 2.98958 1.3125 3.65625C1.3125 4.11458 1.41667 4.58333 1.625 5.0625C1.85417 5.54167 2.25 6.09375 2.8125 6.71875C3.375 7.34375 3.89583 7.88542 4.375 8.34375C4.85417 8.80208 5.59375 9.47917 6.59375 10.375L6.65625 10.4375L6.71875 10.375ZM9.65625 0C10.6979 0 11.5625 0.354167 12.25 1.0625C12.9583 1.77083 13.3125 2.63542 13.3125 3.65625C13.3125 4.26042 13.1979 4.85417 12.9688 5.4375C12.7396 6 12.3125 6.63542 11.6875 7.34375C11.0833 8.05208 10.5312 8.64583 10.0312 9.125C9.53125 9.60417 8.72917 10.3438 7.625 11.3438L6.65625 12.2188L5.6875 11.375C4.25 10.0833 3.20833 9.11458 2.5625 8.46875C1.9375 7.82292 1.35417 7.0625 0.8125 6.1875C0.270833 5.3125 0 4.46875 0 3.65625C0 2.63542 0.34375 1.77083 1.03125 1.0625C1.73958 0.354167 2.61458 0 3.65625 0C4.86458 0 5.86458 0.46875 6.65625 1.40625C7.44792 0.46875 8.44792 0 9.65625 0Z" fill="currentColor"/>
</svg>
