<svg width="11" height="3" viewBox="0 0 11 3" fill="none" xmlns="http://www.w3.org/2000/svg" id="post-menu">
<path d="M4.40625 0.40625C4.67708 0.135417 4.98958 0 5.34375 0C5.69792 0 6.01042 0.135417 6.28125 0.40625C6.55208 0.677083 6.6875 0.989583 6.6875 1.34375C6.6875 1.69792 6.55208 2.01042 6.28125 2.28125C6.01042 2.55208 5.69792 2.6875 5.34375 2.6875C4.98958 2.6875 4.67708 2.55208 4.40625 2.28125C4.13542 2.01042 4 1.69792 4 1.34375C4 0.989583 4.13542 0.677083 4.40625 0.40625ZM8.40625 0.40625C8.67708 0.135417 8.98958 0 9.34375 0C9.69792 0 10.0104 0.135417 10.2812 0.40625C10.5521 0.677083 10.6875 0.989583 10.6875 1.34375C10.6875 1.69792 10.5521 2.01042 10.2812 2.28125C10.0104 2.55208 9.69792 2.6875 9.34375 2.6875C8.98958 2.6875 8.67708 2.55208 8.40625 2.28125C8.13542 2.01042 8 1.69792 8 1.34375C8 0.989583 8.13542 0.677083 8.40625 0.40625ZM0.40625 0.40625C0.677083 0.135417 0.989583 0 1.34375 0C1.69792 0 2.01042 0.135417 2.28125 0.40625C2.55208 0.677083 2.6875 0.989583 2.6875 1.34375C2.6875 1.69792 2.55208 2.01042 2.28125 2.28125C2.01042 2.55208 1.69792 2.6875 1.34375 2.6875C0.989583 2.6875 0.677083 2.55208 0.40625 2.28125C0.135417 2.01042 0 1.69792 0 1.34375C0 0.989583 0.135417 0.677083 0.40625 0.40625Z" fill="currentColor"/>
</svg>
